# xmcd
#
# Track frame offsets:
#	150
#	13282
#	27420
#	43396
#	57183
#	68512
#	80277
#	90797
#	101535
#	117238
#	137304
#	151410
#
# Disc length: 2219 seconds
#
# Revision: 1
# Processed by: cddbd v1.5.2PL0 Copyright (c) Steve Scherf et al.
# Submitted via: EasyCDDAExtractor 11.5.3.1
#
DISCID=8d08a90c
DTITLE=Coundown Country Kids - Classic Country Songs for Kids Disc 1
DYEAR=2004
DGENRE=Kids
TTITLE0=Don't Rock the Jukebox
TTITLE1=Achy Breaky Heart
TTITLE2=For Ever and Ever Amen
TTITLE3=Take Me Home Country Roads
TTITLE4=Wabash Cannonball
TTITLE5=Jambalaya
TTITLE6=May the Bird of Paradise Fly up Your Nose
TTITLE7=Act Naturally
TTITLE8=Tie a Yellow Ribbon
TTITLE9=You've Got A Friend
TTITLE10=God Bless the U.S.A.
TTITLE11=Will the Circle be Unbroken
EXTD=
EXTT0=
EXTT1=
EXTT2=
EXTT3=
EXTT4=
EXTT5=
EXTT6=
EXTT7=
EXTT8=
EXTT9=
EXTT10=
EXTT11=
PLAYORDER=
